<svg xmlns="http://www.w3.org/2000/svg" width="27" height="27" viewBox="0 0 27 27">
  <g id="instagram" transform="translate(-41 -44)">
    <g id="Ellipse_7" data-name="Ellipse 7" transform="translate(41 44)" fill="none" stroke="#fff" stroke-width="1">
      <circle cx="13.5" cy="13.5" r="13.5" stroke="none"/>
      <circle cx="13.5" cy="13.5" r="13" fill="none"/>
    </g>
    <g id="Instagram-2" data-name="Instagram" transform="translate(47.568 50.568)">
      <g id="Instagram-3" data-name="Instagram" transform="translate(0 0)">
        <g id="Group_5" data-name="Group 5" transform="translate(0 0)">
          <path id="Path_23" data-name="Path 23" d="M7.094,1.411c1.851,0,2.07.007,2.8.04a3.836,3.836,0,0,1,1.287.239,2.148,2.148,0,0,1,.8.519,2.148,2.148,0,0,1,.519.8,3.836,3.836,0,0,1,.239,1.287c.033.731.04.95.04,2.8s-.007,2.07-.04,2.8a3.836,3.836,0,0,1-.239,1.287A2.3,2.3,0,0,1,11.183,12.5a3.837,3.837,0,0,1-1.287.239c-.731.033-.95.04-2.8.04s-2.07-.007-2.8-.04A3.837,3.837,0,0,1,3.006,12.5a2.148,2.148,0,0,1-.8-.519,2.148,2.148,0,0,1-.519-.8A3.837,3.837,0,0,1,1.451,9.9c-.033-.731-.04-.95-.04-2.8s.007-2.07.04-2.8A3.837,3.837,0,0,1,1.69,3.006a2.148,2.148,0,0,1,.519-.8,2.148,2.148,0,0,1,.8-.519,3.836,3.836,0,0,1,1.287-.239c.731-.033.95-.04,2.8-.04m0-1.249C5.212.162,4.976.17,4.236.2A5.088,5.088,0,0,0,2.553.526a3.4,3.4,0,0,0-1.228.8,3.4,3.4,0,0,0-.8,1.228A5.088,5.088,0,0,0,.2,4.236C.17,4.976.162,5.212.162,7.094S.17,9.213.2,9.953a5.088,5.088,0,0,0,.322,1.683,3.4,3.4,0,0,0,.8,1.228,3.4,3.4,0,0,0,1.228.8,5.089,5.089,0,0,0,1.683.322c.739.034.975.042,2.858.042s2.119-.008,2.858-.042a5.089,5.089,0,0,0,1.683-.322,3.545,3.545,0,0,0,2.027-2.027,5.089,5.089,0,0,0,.322-1.683c.034-.739.042-.975.042-2.858s-.008-2.119-.042-2.858a5.089,5.089,0,0,0-.322-1.683,3.4,3.4,0,0,0-.8-1.228,3.4,3.4,0,0,0-1.228-.8A5.088,5.088,0,0,0,9.953.2C9.213.17,8.977.162,7.094.162Z" transform="translate(-0.162 -0.162)" fill="#fff"/>
          <path id="Path_24" data-name="Path 24" d="M8.587,5.027a3.56,3.56,0,1,0,3.56,3.56A3.56,3.56,0,0,0,8.587,5.027Zm0,5.871A2.311,2.311,0,1,1,10.9,8.587,2.311,2.311,0,0,1,8.587,10.9Z" transform="translate(-1.654 -1.654)" fill="#fff"/>
          <circle id="Ellipse_5" data-name="Ellipse 5" cx="0.832" cy="0.832" r="0.832" transform="translate(9.457 3.232) rotate(-45)" fill="#fff"/>
        </g>
      </g>
    </g>
  </g>
</svg>
