<svg xmlns="http://www.w3.org/2000/svg" width="141.657" height="49.812" viewBox="0 0 141.657 49.812">
  <g id="Group_5596" data-name="Group 5596" transform="translate(-40.206 -38.7)">
    <path id="Path_44508" data-name="Path 44508" d="M84.585,59.28l-.066.394a9.678,9.678,0,0,1-2.235.263,4,4,0,0,1-1.118-.2q-.855-.262-.855-.657,0-1.315,1.973-1.316Q84.585,57.767,84.585,59.28Zm7.3-17.818A20.878,20.878,0,0,0,81.167,38.7,30.073,30.073,0,0,0,66.5,42.053,21.9,21.9,0,0,0,59.8,47.445a12.155,12.155,0,0,0-3.09,7.824,6.175,6.175,0,0,0,2.1,5,7.789,7.789,0,0,0,5.26,1.643q4.6,0,9.237-3.714t4.635-8.251q0-3.879-4.734-3.878a14.125,14.125,0,0,0-6.969,2.1q-4.141,2.367-4.667,5.325a16.234,16.234,0,0,1,5.062-4.865,11.992,11.992,0,0,1,6.641-2.1q3.681,0,3.681,3.681,0,3.552-3.911,7.167a12.843,12.843,0,0,1-8.974,3.616q-6.115,0-6.115-5.721,0-7.429,9.337-12.557a28.829,28.829,0,0,1,13.873-3.09,15.9,15.9,0,0,1,9.4,2.691q-6.312,4.267-14.6,16.015A72.81,72.81,0,0,1,64.729,71.061q-8.022,6.957-14.793,6.957-8.81,0-8.744-4.8a2.8,2.8,0,0,0,1.709.659q1.972,0,1.972-1.447a1.919,1.919,0,0,0-.526-1.217,1.48,1.48,0,0,0-1.118-.624q-3.024,0-3.024,2.935a4.53,4.53,0,0,0,1.709,3.13q2.234,2.088,8.021,2.088,6.64,0,14.07-4.2a36.33,36.33,0,0,0,10.388-9.319q.592-.722,8.021-11.551A56.046,56.046,0,0,1,91.489,43.04a7.5,7.5,0,0,1,2.564,5.72,9.992,9.992,0,0,1-2.531,6.607,12.934,12.934,0,0,1-6.081,4.11,3.168,3.168,0,0,0-3.287-2.3q-2.7,0-2.695,1.841c0,.482.371.877,1.118,1.183a5.17,5.17,0,0,0,1.907.461,7.688,7.688,0,0,0,1.841-.264,51.205,51.205,0,0,1-3.813,6.18q-2.5,3.814-2.5,6.706A6.594,6.594,0,0,0,79,76.966a3.684,3.684,0,0,0,3.221,1.775q1.841,0,6.016-3.452t4.175-5.161q-.46,0-2.3,1.973a47.162,47.162,0,0,1-3.682,3.682,6.975,6.975,0,0,1-4.208,1.972q-2.039,0-2.039-2.686,0-2.1,2.762-6.323t2.762-7.24a6.083,6.083,0,0,0-.131-1.311,15.457,15.457,0,0,0,7.56-3.866,9.931,9.931,0,0,0,3.551-7.469q0-4-3.879-6.684a12.433,12.433,0,0,1,6.378-2.555A15.16,15.16,0,0,0,91.883,41.462Z" transform="translate(0 0)" fill="#bd8739"/>
    <path id="Path_44509" data-name="Path 44509" d="M188.128,64.262c-.528,0-.619,0-.619-.332,0-.481.71-2.954,2.773-2.954a1.741,1.741,0,0,1,1.9,1.84,1.441,1.441,0,0,1-1.559,1.446Zm5.8.936c.366,0,.619,0,.619-.543,0-1.026-.734-4.372-4.194-4.372-3.116,0-5.682,2.895-5.682,7.357,0,4.19,2.291,6.813,5.316,6.813a4.968,4.968,0,0,0,4.515-3.105c0-.09-.047-.271-.207-.271-.137,0-.16.03-.5.482a3.277,3.277,0,0,1-2.52,1.206c-2.36,0-4.056-2.593-4.056-5.969,0-1.568.206-1.6.6-1.6Zm-13.335-2.533c0-.633.047-.693.436-.693,1.1,0,1.627.06,2.017.06.3,0,.366-.09.412-.634s-.115-.6-.3-.6c-.206,0-.366.06-.688.06h-1.306c-.481,0-.573-.12-.573-.693v-2.05c0-.483-.229-.483-.3-.483-.16,0-.3.212-.39.362a6.814,6.814,0,0,1-2.016,2.713l-.619.423a.688.688,0,0,0-.343.543c0,.331.275.331.389.331.184,0,.344-.03.527-.03.344-.03.527.151.527.543v8.653c0,2.261,1.122,3.286,2.314,3.286a3.838,3.838,0,0,0,3.139-2.291c0-.12-.068-.271-.183-.271l-.252.12c-.8.664-1.122.754-1.466.754-1.192,0-1.33-1.387-1.33-2.743Zm-8.2,6.663c0,2.111-.894,3.2-1.925,3.2-.5,0-1.031-.543-1.031-1.99a2.788,2.788,0,0,1,1.443-2.653,3.432,3.432,0,0,1,1.26-.634c.115,0,.253.031.253.333Zm0-3.829c0,.542-.023.783-.573,1.085-3.529,1.838-4.743,3.135-4.743,5.336,0,.453.115,2.533,1.787,2.533,1.031,0,2.268-1.115,3.231-2.141l.16-.121c.068,0,.115,0,.32.573.275.723.71,1.628,1.6,1.628a3.071,3.071,0,0,0,2.4-2.141c0-.09-.068-.271-.206-.271-.115,0-.138.03-.389.3a.953.953,0,0,1-.665.3c-.641,0-.71-.754-.71-1.688V62.483c0-1.236-.527-2.2-2.68-2.2A4.93,4.93,0,0,0,167,64.413a.541.541,0,0,0,.5.6,2.018,2.018,0,0,0,1.718-1.477c.184-.693.688-2.533,2.017-2.533,1.076,0,1.146,1.447,1.146,2.5Zm-9.416-2.834c0-.633.045-.693.436-.693,1.1,0,1.626.06,2.015.06.3,0,.367-.09.413-.634s-.114-.6-.3-.6c-.207,0-.367.06-.688.06h-1.306c-.481,0-.572-.12-.572-.693v-2.05c0-.483-.229-.483-.3-.483-.16,0-.3.212-.389.362a6.806,6.806,0,0,1-2.017,2.713l-.618.423a.685.685,0,0,0-.345.543c0,.331.275.331.39.331.184,0,.344-.03.527-.03.343-.03.527.151.527.543v8.653c0,2.261,1.122,3.286,2.315,3.286a3.838,3.838,0,0,0,3.138-2.291c0-.12-.069-.271-.183-.271l-.253.12c-.8.664-1.122.754-1.466.754-1.192,0-1.328-1.387-1.328-2.743Zm-12.1,9.8c0,.723,0,.965.275,1.146a6.238,6.238,0,0,0,2.886.844c3.025,0,4.422-2.593,4.422-4.854a4.525,4.525,0,0,0-2.7-4.069c-2.314-1.267-2.818-1.539-2.818-2.745a1.783,1.783,0,0,1,1.833-1.808c1.535,0,2.154,1.6,2.291,2.171s.251.634.411.634c.23,0,.275-.363.275-.483l.093-1.779c0-.482,0-.815-.573-.9-.184,0-1.878-.331-2.223-.331a3.929,3.929,0,0,0-4.079,4.13c0,2.171,1.627,3.014,2.98,3.708,1.581.814,2.634,1.507,2.634,3.105a2.354,2.354,0,0,1-2.223,2.473c-1.855,0-2.52-2.623-2.634-3.166-.115-.572-.229-.844-.481-.844-.3,0-.32.452-.32.542Zm-10.378-1.3c0,1.236,0,2.05-1.146,2.14-.481.06-.825.09-.825.512,0,.453.3.453.482.453.16,0,.344-.03.71-.06s.94-.06,1.879-.06h.275c.137,0,1.214.03,2.52.06,1.329.031,2.933.06,4.1.06.664,0,.894-.332.917-.9.068-1.116.32-3.045.32-3.437,0-.18-.069-.452-.275-.452s-.252.12-.664,1.176c-1.008,2.563-2.428,2.563-3.436,2.563-1.925,0-2.407-.333-2.407-2.473V65.559c0-.9.184-.9,1.283-.9,1.878,0,2.52.03,3,2.351.114.573.252.724.436.724.275,0,.275-.422.275-.6,0-.242-.069-1.3-.069-1.507,0-.663.16-3.769.16-4.191,0-.332-.115-.423-.252-.423-.114,0-.229.061-.343.452-.413,1.6-.619,2.261-3.163,2.261-1.329,0-1.329-.241-1.329-1.205V58.142c0-1.507.093-1.718,1.238-1.718,3.254,0,3.8,1.146,4.078,1.93.412,1.114.457,1.236.71,1.236.229,0,.229-.362.229-.513V56.3c0-.694,0-.934-.275-.934a6.764,6.764,0,0,1-.688.06c-.618.031-1.787.06-4.147.06h-1.1c-1.948,0-2.933-.03-3.436-.06a3.968,3.968,0,0,1-.572-.06c-.161,0-.459,0-.459.421,0,.452.321.483.825.513,1.146.09,1.146.9,1.146,2.141Zm-12.464.06c0,1.658,0,1.99-.986,2.171-.5.09-.687.212-.687.483,0,.391.229.391.5.391.481,0,.756-.12,2.268-.12,1.329,0,1.787.12,2.407.12.16,0,.389,0,.389-.362,0-.271-.115-.423-.688-.513-.985-.18-.985-.513-.985-2.2V57.448c0-.332.092-2.2.092-2.593,0-.3,0-.633-.252-.633-.115,0-.161.03-.71.391a9.92,9.92,0,0,1-1.971.9c-.665.212-.733.242-.733.513,0,.332.115.332.527.392.824.09.824,1.115.824,2.02Zm-6.139-1.9c0,2.111-.894,3.2-1.924,3.2-.5,0-1.031-.543-1.031-1.99a2.788,2.788,0,0,1,1.444-2.653,3.425,3.425,0,0,1,1.26-.634c.115,0,.252.031.252.333Zm0-3.829c0,.542-.023.783-.572,1.085-3.529,1.838-4.743,3.135-4.743,5.336,0,.453.114,2.533,1.787,2.533,1.031,0,2.268-1.115,3.23-2.141l.161-.121c.068,0,.114,0,.32.573.275.723.71,1.628,1.6,1.628a3.072,3.072,0,0,0,2.406-2.141c0-.09-.069-.271-.206-.271-.114,0-.138.03-.39.3a.951.951,0,0,1-.664.3c-.642,0-.71-.754-.71-1.688V62.483c0-1.236-.527-2.2-2.681-2.2a4.93,4.93,0,0,0-4.926,4.13.541.541,0,0,0,.5.6,2.019,2.019,0,0,0,1.719-1.477c.184-.693.688-2.533,2.016-2.533,1.077,0,1.146,1.447,1.146,2.5Zm-13.151-1.237c-.527,0-.619,0-.619-.332,0-.481.711-2.954,2.773-2.954a1.741,1.741,0,0,1,1.9,1.84,1.44,1.44,0,0,1-1.558,1.446Zm5.8.936c.366,0,.618,0,.618-.543,0-1.026-.733-4.372-4.193-4.372-3.116,0-5.682,2.895-5.682,7.357,0,4.19,2.291,6.813,5.316,6.813a4.968,4.968,0,0,0,4.514-3.105c0-.09-.046-.271-.206-.271-.138,0-.16.03-.5.482a3.277,3.277,0,0,1-2.521,1.206c-2.36,0-4.055-2.593-4.055-5.969,0-1.568.206-1.6.6-1.6Z" transform="translate(-12.68 -3.025)" fill="#bd8739"/>
    <path id="Path_44510" data-name="Path 44510" d="M181.233,92.775c0,.471.114.828.568.828,1.153,0,2.4-2.71,2.4-2.97,0-.081-.032-.146-.114-.146-.146,0-.212.406-.666,1.136-.519.827-.714,1.006-.941,1.006-.147,0-.211-.13-.211-.374,0-.438.147-.68,2.547-9.2.147-.519.309-.861.309-.941,0-.1-.033-.13-.114-.13a3.106,3.106,0,0,1-1.7.552c-.275,0-.471.064-.486.179,0,.13.064.178.373.21.374.032.439.179.439.391C183.636,84.076,181.233,91.428,181.233,92.775Zm-1.445-6.605c.39,0,.585.292.585.681,0,.5-.065,2.613-3.278,3.116C177.6,87.468,178.945,86.17,179.788,86.17Zm1.461,1.072a1.3,1.3,0,0,0-1.38-1.364c-1.688,0-4.009,2.435-4.009,5.4,0,1.623.568,2.386,1.575,2.386a3.032,3.032,0,0,0,1.98-1.022,4.928,4.928,0,0,0,1.136-1.721.133.133,0,0,0-.13-.147c-.13,0-.114.163-.487.665-.714.958-1.428,1.444-2.062,1.444-.616,0-.973-.519-.973-1.557a4.221,4.221,0,0,1,.13-1.039C180.032,89.967,181.25,88.928,181.25,87.241Zm-9.024,5.534c0,.471.113.828.568.828,1.153,0,2.4-2.71,2.4-2.97,0-.081-.032-.146-.114-.146-.146,0-.211.406-.665,1.136-.519.827-.714,1.006-.941,1.006-.147,0-.211-.13-.211-.374,0-.438.146-.68,2.547-9.2.147-.519.308-.861.308-.941,0-.1-.032-.13-.114-.13a3.1,3.1,0,0,1-1.7.552c-.276,0-.471.064-.487.179,0,.13.064.178.373.21.374.032.439.179.439.391C174.627,84.076,172.225,91.428,172.225,92.775Zm-6.494-.7c0-1.72,2.256-5.745,3.9-5.745a.687.687,0,0,1,.746.762c0,1.1-2.937,5.7-4.138,5.7C165.878,92.791,165.732,92.5,165.732,92.077Zm5.94-5.842a.925.925,0,0,0,.064-.244c0-.1-.064-.114-.162-.114H171.1c-.195,0-.227.032-.276.162l-.162.39a1.774,1.774,0,0,0-1.071-.39c-1.948,0-4.9,3.344-4.9,6.184,0,.861.26,1.444,1.006,1.444,1.282,0,3.229-3.019,3.814-3.911l.033.032a14.238,14.238,0,0,0-.958,3.295c0,.324.064.584.438.584,1.056,0,2.532-2.466,2.532-2.921,0-.081-.032-.13-.114-.13-.163,0-.1.179-.5.795-.552.844-.86,1.153-1.006,1.153-.1,0-.179-.049-.179-.227a4.7,4.7,0,0,1,.341-1.364Zm-10.42-.357c-1.217,0-1.574,1.411-1.574,2.483,0,.195.048.308.162.308.13,0,.13-.065.13-.5,0-.828.308-1.185.812-1.185.519,0,1.266.455,2.094.455a2.665,2.665,0,0,0,.908-.211l.032.032c-2.385,1.965-4.22,5.1-4.382,5.1-.6.163-1.217.52-1.217.974a.249.249,0,0,0,.276.276c.195,0,.341-.26.535-.5.179-.259.39-.5.665-.5a1.894,1.894,0,0,1,1.023.5,2.109,2.109,0,0,0,1.266.5,1.941,1.941,0,0,0,1.85-2.077c0-.682-.147-.845-.212-.845-.081,0-.113.049-.113.147,0,.13.032.324.032.665,0,.65-.243,1.006-.861,1.006-.648,0-1.266-.357-1.963-.357a3.7,3.7,0,0,0-.877.1l-.032-.032c2.369-2.532,3.31-3.993,4.236-4.886.568-.552,1.217-.86,1.217-1.331a.185.185,0,0,0-.21-.179c-.261,0-.471.259-.633.5-.293.438-.228.568-.763.568a2.712,2.712,0,0,1-1.25-.5A2.571,2.571,0,0,0,161.252,85.877Zm-3.994.292c.39,0,.585.292.585.681,0,.5-.065,2.613-3.279,3.116C155.068,87.468,156.415,86.17,157.258,86.17Zm1.461,1.072a1.3,1.3,0,0,0-1.378-1.364c-1.688,0-4.01,2.435-4.01,5.4,0,1.623.568,2.386,1.574,2.386a3.034,3.034,0,0,0,1.981-1.022,4.922,4.922,0,0,0,1.135-1.721.133.133,0,0,0-.13-.147c-.13,0-.113.163-.486.665-.714.958-1.428,1.444-2.061,1.444-.618,0-.974-.519-.974-1.557a4.262,4.262,0,0,1,.13-1.039C157.5,89.967,158.719,88.928,158.719,87.241ZM149.078,83.7c.438-.016.892-.065,1.347-.065,1.1,0,1.542.5,1.542,1.331,0,1.7-1.217,2.791-3.441,2.791-.178,0-.341,0-.519-.016Zm-.244,4.447c1.721,0,2.353.487,2.353,1.769a3.8,3.8,0,0,1-.892,2.5,3.412,3.412,0,0,1-2.564.731c-.715,0-.941-.2-.941-.52a34.894,34.894,0,0,1,1.055-4.382c.016-.064.065-.1.195-.1Zm.8-.228c2.126-.178,3.376-1.168,3.376-2.758,0-1.267-.7-1.915-2.305-1.915-.99,0-1.493.065-2.158.065-.374,0-.845-.065-1.3-.065a.184.184,0,0,0-.21.195c0,.13.13.146.5.194.21.033.406.13.406.406,0,.26-1.364,4.787-2.192,8.164-.162.665-.438.892-.876.941-.308.032-.438.048-.438.227,0,.13.1.162.373.162.147,0,.974-.064,1.428-.064,1.3,0,1.753.064,2.467.064a3.338,3.338,0,0,0,2.759-.941,3.446,3.446,0,0,0,.892-2.419c0-1.574-1.266-2.223-2.726-2.223Zm-9.836-1.4c-1.526,4.511-1.915,5.616-1.915,6.444,0,.389.146.633.5.633.974,0,2.467-2.419,2.467-2.727a.116.116,0,0,0-.114-.13c-.179,0-.211.325-.746,1.023-.471.6-.682.86-.861.86a.229.229,0,0,1-.211-.259c0-.455.584-1.688,1.915-5.843H142.1l.113-.39h-1.233a19.789,19.789,0,0,0,.714-2.37c0-.064-.017-.081-.227-.081-.73,0-.714.016-.812.308l-.714,2.143h-1.055l-.114.39Zm-2.76-2.386c0,.308.146.568.406.568.406,0,.8-.552.8-1.087,0-.308-.147-.568-.406-.568C137.423,83.054,137.034,83.605,137.034,84.141Zm.081,3.749a5.172,5.172,0,0,0,.308-1.363c0-.421-.195-.649-.519-.649-.5,0-1.023.487-1.606,1.282a4.235,4.235,0,0,0-.8,1.461c0,.081.049.1.114.1.211,0,.114-.244.844-1.2.406-.535.584-.665.746-.665.13,0,.179.081.179.211a4.207,4.207,0,0,1-.374,1.3L134.924,91.4a5.307,5.307,0,0,0-.39,1.525c0,.341.146.682.5.682,1.071,0,2.386-2.516,2.386-2.824a.115.115,0,0,0-.13-.113c-.163,0-.163.227-.439.681-.616,1.023-.876,1.282-1.087,1.282a.179.179,0,0,1-.195-.194,2.464,2.464,0,0,1,.179-.73Zm-7.207,5.584c.13,0,.179-.065.325-.52,1.249-3.862,2.661-6.134,2.986-6.134.146,0,.195.114.195.259,0,.341-.261.471-.261.844,0,.293.147.391.374.391.39,0,.926-.6.926-1.542,0-.5-.163-.829-.552-.829-.665,0-1.542.941-2.775,3.717l-.032-.032a20.526,20.526,0,0,0,.665-2.889c0-.455-.227-.7-.649-.7-.99,0-2.11,2.305-2.11,2.532a.137.137,0,0,0,.147.147c.259,0,.114-.179.568-.926.341-.551.65-.876.86-.876.13,0,.147.1.147.243,0,.439-1.217,4.82-1.606,6.314Zm-3.928-10.03c1.168,0,1.753,1.135,1.753,2.628,0,2.824-1.558,7.271-3.668,7.271-1.168,0-1.752-1.135-1.752-2.629C122.312,87.889,123.87,83.443,125.98,83.443Zm2.791,3.765c0-2.386-.877-4.155-2.791-4.155-2.889,0-4.706,3.765-4.706,6.524,0,2.386.876,4.155,2.791,4.155C126.953,93.732,128.771,89.967,128.771,87.208ZM113.79,92.775c.065-1.3.081-2.256.081-4.042,0-2.044-.308-2.791-1.023-2.791-.909,0-1.85,2.256-1.85,2.451,0,.147.048.195.147.195.21,0,.227-.4.568-1.006.308-.568.5-.86.762-.86.357,0,.519.341.519,3.651a21.247,21.247,0,0,1-.114,2.646,5.073,5.073,0,0,1-1.136,2.515c-.259.276-.714.8-1.168.8a.351.351,0,0,1-.374-.308c-.1-.585-.211-.762-.5-.762a.612.612,0,0,0-.536.649c0,.568.26,1.039.86,1.039s1.137-.275,2-1.282c.308-.357.666-.829,1.087-1.4,3.035-4.008,3.944-5.924,3.944-7.32,0-.616-.13-1.006-.552-1.006-.308,0-.519.293-.519.714s.324.958.324,1.331c0,1.542-1.98,4.106-2.467,4.82Zm-9.057-.325c0-1.72,2.564-5.858,3.814-5.858.568,0,.8.454.8,1.217,0,1.72-1.786,5.534-3.652,5.534A.847.847,0,0,1,104.733,92.45Zm.812-3.343,1.817-5.907c.26-.828.357-1.006.357-1.087,0-.1-.032-.13-.114-.13a3.106,3.106,0,0,1-1.7.552c-.275,0-.47.064-.486.179,0,.13.064.178.373.21.374.032.439.179.439.391,0,.648-2.305,6.978-2.305,8.535a1.694,1.694,0,0,0,1.769,1.883c2.63,0,4.691-3.262,4.691-5.615,0-1.558-.519-2.24-1.364-2.24-1.493,0-2.856,2.418-3.424,3.229Z" transform="translate(-12.415 -8.433)" fill="#bd8739"/>
  </g>
</svg>
